<mxfile host="app.diagrams.net" agent="Mozilla/5.0 (Windows NT 10.0; Win64; x64) AppleWebKit/537.36 (KHTML, like Gecko) Chrome/138.0.0.0 Safari/537.36" version="28.0.5">
  <diagram name="Pagina-1" id="AjR6Tb-IoWu9hcl_Ucn6">
    <mxGraphModel dx="906" dy="458" grid="1" gridSize="10" guides="1" tooltips="1" connect="1" arrows="1" fold="1" page="1" pageScale="1" pageWidth="2339" pageHeight="3300" math="0" shadow="0">
      <root>
        <mxCell id="0" />
        <mxCell id="1" parent="0" />
        <mxCell id="cwaugbciKwd2bRIjYYjd-20" value="" style="group;strokeWidth=2;" parent="1" vertex="1" connectable="0">
          <mxGeometry x="280" y="50" width="320" height="40" as="geometry" />
        </mxCell>
        <mxCell id="cwaugbciKwd2bRIjYYjd-1" value="" style="rounded=0;whiteSpace=wrap;html=1;strokeWidth=2;" parent="cwaugbciKwd2bRIjYYjd-20" vertex="1">
          <mxGeometry width="20" height="40" as="geometry" />
        </mxCell>
        <mxCell id="cwaugbciKwd2bRIjYYjd-5" value="" style="rounded=0;whiteSpace=wrap;html=1;strokeWidth=2;" parent="cwaugbciKwd2bRIjYYjd-20" vertex="1">
          <mxGeometry x="20" width="20" height="40" as="geometry" />
        </mxCell>
        <mxCell id="cwaugbciKwd2bRIjYYjd-6" value="" style="rounded=0;whiteSpace=wrap;html=1;strokeWidth=2;" parent="cwaugbciKwd2bRIjYYjd-20" vertex="1">
          <mxGeometry x="40" width="20" height="40" as="geometry" />
        </mxCell>
        <mxCell id="cwaugbciKwd2bRIjYYjd-7" value="" style="rounded=0;whiteSpace=wrap;html=1;strokeWidth=2;" parent="cwaugbciKwd2bRIjYYjd-20" vertex="1">
          <mxGeometry x="60" width="20" height="40" as="geometry" />
        </mxCell>
        <mxCell id="cwaugbciKwd2bRIjYYjd-8" value="" style="rounded=0;whiteSpace=wrap;html=1;strokeWidth=2;" parent="cwaugbciKwd2bRIjYYjd-20" vertex="1">
          <mxGeometry x="80" width="20" height="40" as="geometry" />
        </mxCell>
        <mxCell id="cwaugbciKwd2bRIjYYjd-9" value="" style="rounded=0;whiteSpace=wrap;html=1;strokeWidth=2;" parent="cwaugbciKwd2bRIjYYjd-20" vertex="1">
          <mxGeometry x="100" width="20" height="40" as="geometry" />
        </mxCell>
        <mxCell id="cwaugbciKwd2bRIjYYjd-10" value="" style="rounded=0;whiteSpace=wrap;html=1;strokeWidth=2;" parent="cwaugbciKwd2bRIjYYjd-20" vertex="1">
          <mxGeometry x="120" width="20" height="40" as="geometry" />
        </mxCell>
        <mxCell id="cwaugbciKwd2bRIjYYjd-11" value="" style="rounded=0;whiteSpace=wrap;html=1;strokeWidth=2;" parent="cwaugbciKwd2bRIjYYjd-20" vertex="1">
          <mxGeometry x="140" width="20" height="40" as="geometry" />
        </mxCell>
        <mxCell id="cwaugbciKwd2bRIjYYjd-12" value="" style="rounded=0;whiteSpace=wrap;html=1;strokeWidth=2;" parent="cwaugbciKwd2bRIjYYjd-20" vertex="1">
          <mxGeometry x="160" width="20" height="40" as="geometry" />
        </mxCell>
        <mxCell id="cwaugbciKwd2bRIjYYjd-13" value="" style="rounded=0;whiteSpace=wrap;html=1;strokeWidth=2;" parent="cwaugbciKwd2bRIjYYjd-20" vertex="1">
          <mxGeometry x="180" width="20" height="40" as="geometry" />
        </mxCell>
        <mxCell id="cwaugbciKwd2bRIjYYjd-14" value="" style="rounded=0;whiteSpace=wrap;html=1;strokeWidth=2;" parent="cwaugbciKwd2bRIjYYjd-20" vertex="1">
          <mxGeometry x="200" width="20" height="40" as="geometry" />
        </mxCell>
        <mxCell id="cwaugbciKwd2bRIjYYjd-15" value="" style="rounded=0;whiteSpace=wrap;html=1;strokeWidth=2;" parent="cwaugbciKwd2bRIjYYjd-20" vertex="1">
          <mxGeometry x="220" width="20" height="40" as="geometry" />
        </mxCell>
        <mxCell id="cwaugbciKwd2bRIjYYjd-16" value="" style="rounded=0;whiteSpace=wrap;html=1;strokeWidth=2;" parent="cwaugbciKwd2bRIjYYjd-20" vertex="1">
          <mxGeometry x="240" width="20" height="40" as="geometry" />
        </mxCell>
        <mxCell id="cwaugbciKwd2bRIjYYjd-17" value="" style="rounded=0;whiteSpace=wrap;html=1;strokeWidth=2;" parent="cwaugbciKwd2bRIjYYjd-20" vertex="1">
          <mxGeometry x="260" width="20" height="40" as="geometry" />
        </mxCell>
        <mxCell id="cwaugbciKwd2bRIjYYjd-18" value="" style="rounded=0;whiteSpace=wrap;html=1;strokeWidth=2;" parent="cwaugbciKwd2bRIjYYjd-20" vertex="1">
          <mxGeometry x="280" width="20" height="40" as="geometry" />
        </mxCell>
        <mxCell id="cwaugbciKwd2bRIjYYjd-19" value="" style="rounded=0;whiteSpace=wrap;html=1;strokeWidth=2;" parent="cwaugbciKwd2bRIjYYjd-20" vertex="1">
          <mxGeometry x="300" width="20" height="40" as="geometry" />
        </mxCell>
        <mxCell id="cwaugbciKwd2bRIjYYjd-21" value="JmtRoot" style="text;html=1;align=center;verticalAlign=middle;whiteSpace=wrap;rounded=0;fontFamily=Times New Roman;fontSize=17;" parent="1" vertex="1">
          <mxGeometry x="410" y="29" width="60" height="20" as="geometry" />
        </mxCell>
        <mxCell id="3CA-7fgf6rY5qHI0OHNV-2" value="" style="endArrow=none;html=1;rounded=0;exitX=0.5;exitY=0;exitDx=0;exitDy=0;entryX=0.5;entryY=1;entryDx=0;entryDy=0;" edge="1" parent="1" source="3CA-7fgf6rY5qHI0OHNV-3" target="cwaugbciKwd2bRIjYYjd-1">
          <mxGeometry width="50" height="50" relative="1" as="geometry">
            <mxPoint x="230" y="120" as="sourcePoint" />
            <mxPoint x="300" y="100" as="targetPoint" />
          </mxGeometry>
        </mxCell>
        <mxCell id="3CA-7fgf6rY5qHI0OHNV-3" value="" style="rounded=0;whiteSpace=wrap;html=1;" vertex="1" parent="1">
          <mxGeometry x="210" y="120" width="20" height="20" as="geometry" />
        </mxCell>
        <mxCell id="3CA-7fgf6rY5qHI0OHNV-5" value="" style="rounded=0;whiteSpace=wrap;html=1;" vertex="1" parent="1">
          <mxGeometry x="240" y="120" width="20" height="20" as="geometry" />
        </mxCell>
        <mxCell id="3CA-7fgf6rY5qHI0OHNV-6" value="" style="endArrow=none;html=1;rounded=0;entryX=0.5;entryY=1;entryDx=0;entryDy=0;exitX=0.5;exitY=0;exitDx=0;exitDy=0;" edge="1" parent="1" source="3CA-7fgf6rY5qHI0OHNV-5" target="cwaugbciKwd2bRIjYYjd-5">
          <mxGeometry width="50" height="50" relative="1" as="geometry">
            <mxPoint x="380" y="220" as="sourcePoint" />
            <mxPoint x="430" y="170" as="targetPoint" />
          </mxGeometry>
        </mxCell>
        <mxCell id="3CA-7fgf6rY5qHI0OHNV-7" value="" style="rounded=0;whiteSpace=wrap;html=1;" vertex="1" parent="1">
          <mxGeometry x="270" y="120" width="20" height="20" as="geometry" />
        </mxCell>
        <mxCell id="3CA-7fgf6rY5qHI0OHNV-8" value="" style="endArrow=none;html=1;rounded=0;entryX=0.5;entryY=1;entryDx=0;entryDy=0;exitX=0.5;exitY=0;exitDx=0;exitDy=0;" edge="1" parent="1" source="3CA-7fgf6rY5qHI0OHNV-7" target="cwaugbciKwd2bRIjYYjd-6">
          <mxGeometry width="50" height="50" relative="1" as="geometry">
            <mxPoint x="380" y="220" as="sourcePoint" />
            <mxPoint x="430" y="170" as="targetPoint" />
          </mxGeometry>
        </mxCell>
        <mxCell id="3CA-7fgf6rY5qHI0OHNV-9" value="" style="rounded=0;whiteSpace=wrap;html=1;" vertex="1" parent="1">
          <mxGeometry x="300" y="120" width="20" height="20" as="geometry" />
        </mxCell>
        <mxCell id="3CA-7fgf6rY5qHI0OHNV-10" value="" style="endArrow=none;html=1;rounded=0;entryX=0.5;entryY=1;entryDx=0;entryDy=0;exitX=0.5;exitY=0;exitDx=0;exitDy=0;" edge="1" parent="1" source="3CA-7fgf6rY5qHI0OHNV-9" target="cwaugbciKwd2bRIjYYjd-7">
          <mxGeometry width="50" height="50" relative="1" as="geometry">
            <mxPoint x="380" y="220" as="sourcePoint" />
            <mxPoint x="430" y="170" as="targetPoint" />
          </mxGeometry>
        </mxCell>
        <mxCell id="3CA-7fgf6rY5qHI0OHNV-11" value="" style="rounded=0;whiteSpace=wrap;html=1;" vertex="1" parent="1">
          <mxGeometry x="330" y="120" width="20" height="20" as="geometry" />
        </mxCell>
        <mxCell id="3CA-7fgf6rY5qHI0OHNV-12" value="" style="endArrow=none;html=1;rounded=0;entryX=0.5;entryY=1;entryDx=0;entryDy=0;exitX=0.5;exitY=0;exitDx=0;exitDy=0;" edge="1" parent="1" source="3CA-7fgf6rY5qHI0OHNV-11" target="cwaugbciKwd2bRIjYYjd-8">
          <mxGeometry width="50" height="50" relative="1" as="geometry">
            <mxPoint x="380" y="220" as="sourcePoint" />
            <mxPoint x="430" y="170" as="targetPoint" />
          </mxGeometry>
        </mxCell>
        <mxCell id="3CA-7fgf6rY5qHI0OHNV-13" value="" style="rounded=0;whiteSpace=wrap;html=1;" vertex="1" parent="1">
          <mxGeometry x="360" y="120" width="20" height="20" as="geometry" />
        </mxCell>
        <mxCell id="3CA-7fgf6rY5qHI0OHNV-14" value="" style="endArrow=none;html=1;rounded=0;entryX=0.5;entryY=1;entryDx=0;entryDy=0;exitX=0.5;exitY=0;exitDx=0;exitDy=0;" edge="1" parent="1" source="3CA-7fgf6rY5qHI0OHNV-13" target="cwaugbciKwd2bRIjYYjd-9">
          <mxGeometry width="50" height="50" relative="1" as="geometry">
            <mxPoint x="380" y="220" as="sourcePoint" />
            <mxPoint x="430" y="170" as="targetPoint" />
          </mxGeometry>
        </mxCell>
        <mxCell id="3CA-7fgf6rY5qHI0OHNV-15" value="" style="rounded=0;whiteSpace=wrap;html=1;" vertex="1" parent="1">
          <mxGeometry x="390" y="120" width="20" height="20" as="geometry" />
        </mxCell>
        <mxCell id="3CA-7fgf6rY5qHI0OHNV-16" value="" style="endArrow=none;html=1;rounded=0;entryX=0.5;entryY=1;entryDx=0;entryDy=0;exitX=0.5;exitY=0;exitDx=0;exitDy=0;" edge="1" parent="1" source="3CA-7fgf6rY5qHI0OHNV-15" target="cwaugbciKwd2bRIjYYjd-10">
          <mxGeometry width="50" height="50" relative="1" as="geometry">
            <mxPoint x="380" y="220" as="sourcePoint" />
            <mxPoint x="430" y="170" as="targetPoint" />
          </mxGeometry>
        </mxCell>
        <mxCell id="3CA-7fgf6rY5qHI0OHNV-17" value="" style="rounded=0;whiteSpace=wrap;html=1;" vertex="1" parent="1">
          <mxGeometry x="420" y="120" width="20" height="20" as="geometry" />
        </mxCell>
        <mxCell id="3CA-7fgf6rY5qHI0OHNV-18" value="" style="endArrow=none;html=1;rounded=0;entryX=0.5;entryY=1;entryDx=0;entryDy=0;exitX=0.5;exitY=0;exitDx=0;exitDy=0;" edge="1" parent="1" source="3CA-7fgf6rY5qHI0OHNV-17" target="cwaugbciKwd2bRIjYYjd-11">
          <mxGeometry width="50" height="50" relative="1" as="geometry">
            <mxPoint x="380" y="220" as="sourcePoint" />
            <mxPoint x="430" y="170" as="targetPoint" />
          </mxGeometry>
        </mxCell>
        <mxCell id="3CA-7fgf6rY5qHI0OHNV-19" value="" style="rounded=0;whiteSpace=wrap;html=1;" vertex="1" parent="1">
          <mxGeometry x="450" y="120" width="20" height="20" as="geometry" />
        </mxCell>
        <mxCell id="3CA-7fgf6rY5qHI0OHNV-20" value="" style="endArrow=none;html=1;rounded=0;entryX=0.5;entryY=1;entryDx=0;entryDy=0;exitX=0.5;exitY=0;exitDx=0;exitDy=0;" edge="1" parent="1" source="3CA-7fgf6rY5qHI0OHNV-19" target="cwaugbciKwd2bRIjYYjd-12">
          <mxGeometry width="50" height="50" relative="1" as="geometry">
            <mxPoint x="380" y="220" as="sourcePoint" />
            <mxPoint x="430" y="170" as="targetPoint" />
          </mxGeometry>
        </mxCell>
        <mxCell id="3CA-7fgf6rY5qHI0OHNV-21" value="" style="rounded=0;whiteSpace=wrap;html=1;" vertex="1" parent="1">
          <mxGeometry x="480" y="120" width="20" height="20" as="geometry" />
        </mxCell>
        <mxCell id="3CA-7fgf6rY5qHI0OHNV-22" value="" style="endArrow=none;html=1;rounded=0;entryX=0.5;entryY=1;entryDx=0;entryDy=0;exitX=0.5;exitY=0;exitDx=0;exitDy=0;" edge="1" parent="1" source="3CA-7fgf6rY5qHI0OHNV-21" target="cwaugbciKwd2bRIjYYjd-13">
          <mxGeometry width="50" height="50" relative="1" as="geometry">
            <mxPoint x="380" y="220" as="sourcePoint" />
            <mxPoint x="430" y="170" as="targetPoint" />
          </mxGeometry>
        </mxCell>
        <mxCell id="3CA-7fgf6rY5qHI0OHNV-23" value="" style="rounded=0;whiteSpace=wrap;html=1;" vertex="1" parent="1">
          <mxGeometry x="510" y="120" width="20" height="20" as="geometry" />
        </mxCell>
        <mxCell id="3CA-7fgf6rY5qHI0OHNV-24" value="" style="rounded=0;whiteSpace=wrap;html=1;" vertex="1" parent="1">
          <mxGeometry x="540" y="120" width="20" height="20" as="geometry" />
        </mxCell>
        <mxCell id="3CA-7fgf6rY5qHI0OHNV-25" value="" style="rounded=0;whiteSpace=wrap;html=1;" vertex="1" parent="1">
          <mxGeometry x="570" y="120" width="20" height="20" as="geometry" />
        </mxCell>
        <mxCell id="3CA-7fgf6rY5qHI0OHNV-26" value="" style="endArrow=none;html=1;rounded=0;entryX=0.5;entryY=1;entryDx=0;entryDy=0;exitX=0.5;exitY=0;exitDx=0;exitDy=0;" edge="1" parent="1" source="3CA-7fgf6rY5qHI0OHNV-23" target="cwaugbciKwd2bRIjYYjd-14">
          <mxGeometry width="50" height="50" relative="1" as="geometry">
            <mxPoint x="380" y="220" as="sourcePoint" />
            <mxPoint x="430" y="170" as="targetPoint" />
          </mxGeometry>
        </mxCell>
        <mxCell id="3CA-7fgf6rY5qHI0OHNV-27" value="" style="rounded=0;whiteSpace=wrap;html=1;" vertex="1" parent="1">
          <mxGeometry x="600" y="120" width="20" height="20" as="geometry" />
        </mxCell>
        <mxCell id="3CA-7fgf6rY5qHI0OHNV-28" value="" style="endArrow=none;html=1;rounded=0;entryX=0.5;entryY=1;entryDx=0;entryDy=0;exitX=0.5;exitY=0;exitDx=0;exitDy=0;" edge="1" parent="1" source="3CA-7fgf6rY5qHI0OHNV-24" target="cwaugbciKwd2bRIjYYjd-15">
          <mxGeometry width="50" height="50" relative="1" as="geometry">
            <mxPoint x="380" y="220" as="sourcePoint" />
            <mxPoint x="430" y="170" as="targetPoint" />
          </mxGeometry>
        </mxCell>
        <mxCell id="3CA-7fgf6rY5qHI0OHNV-29" value="" style="endArrow=none;html=1;rounded=0;entryX=0.5;entryY=1;entryDx=0;entryDy=0;exitX=0.5;exitY=0;exitDx=0;exitDy=0;" edge="1" parent="1" source="3CA-7fgf6rY5qHI0OHNV-25" target="cwaugbciKwd2bRIjYYjd-16">
          <mxGeometry width="50" height="50" relative="1" as="geometry">
            <mxPoint x="380" y="220" as="sourcePoint" />
            <mxPoint x="430" y="170" as="targetPoint" />
          </mxGeometry>
        </mxCell>
        <mxCell id="3CA-7fgf6rY5qHI0OHNV-30" value="" style="endArrow=none;html=1;rounded=0;entryX=0.5;entryY=1;entryDx=0;entryDy=0;exitX=0.5;exitY=0;exitDx=0;exitDy=0;" edge="1" parent="1" source="3CA-7fgf6rY5qHI0OHNV-27" target="cwaugbciKwd2bRIjYYjd-17">
          <mxGeometry width="50" height="50" relative="1" as="geometry">
            <mxPoint x="380" y="220" as="sourcePoint" />
            <mxPoint x="430" y="170" as="targetPoint" />
          </mxGeometry>
        </mxCell>
        <mxCell id="3CA-7fgf6rY5qHI0OHNV-31" value="" style="rounded=0;whiteSpace=wrap;html=1;" vertex="1" parent="1">
          <mxGeometry x="660" y="120" width="20" height="20" as="geometry" />
        </mxCell>
        <mxCell id="3CA-7fgf6rY5qHI0OHNV-32" value="" style="rounded=0;whiteSpace=wrap;html=1;" vertex="1" parent="1">
          <mxGeometry x="630" y="120" width="20" height="20" as="geometry" />
        </mxCell>
        <mxCell id="3CA-7fgf6rY5qHI0OHNV-33" value="" style="endArrow=none;html=1;rounded=0;entryX=0.5;entryY=1;entryDx=0;entryDy=0;exitX=0.5;exitY=0;exitDx=0;exitDy=0;" edge="1" parent="1" source="3CA-7fgf6rY5qHI0OHNV-32" target="cwaugbciKwd2bRIjYYjd-18">
          <mxGeometry width="50" height="50" relative="1" as="geometry">
            <mxPoint x="470" y="220" as="sourcePoint" />
            <mxPoint x="520" y="170" as="targetPoint" />
          </mxGeometry>
        </mxCell>
        <mxCell id="3CA-7fgf6rY5qHI0OHNV-34" value="" style="endArrow=none;html=1;rounded=0;entryX=0.5;entryY=1;entryDx=0;entryDy=0;exitX=0.5;exitY=0;exitDx=0;exitDy=0;" edge="1" parent="1" source="3CA-7fgf6rY5qHI0OHNV-31" target="cwaugbciKwd2bRIjYYjd-19">
          <mxGeometry width="50" height="50" relative="1" as="geometry">
            <mxPoint x="470" y="220" as="sourcePoint" />
            <mxPoint x="520" y="170" as="targetPoint" />
          </mxGeometry>
        </mxCell>
        <mxCell id="3CA-7fgf6rY5qHI0OHNV-35" value="" style="endArrow=classic;html=1;rounded=0;exitX=0;exitY=0.5;exitDx=0;exitDy=0;fontColor=#FF0000;labelBackgroundColor=#FF0000;fillColor=#f8cecc;strokeColor=#FF0000;" edge="1" parent="1">
          <mxGeometry width="50" height="50" relative="1" as="geometry">
            <mxPoint x="206" y="130.00000000000006" as="sourcePoint" />
            <mxPoint x="166" y="110" as="targetPoint" />
            <Array as="points">
              <mxPoint x="186" y="130" />
              <mxPoint x="186" y="110" />
            </Array>
          </mxGeometry>
        </mxCell>
        <mxCell id="3CA-7fgf6rY5qHI0OHNV-36" value="&lt;font style=&quot;color: rgb(255, 0, 0);&quot;&gt;h&lt;sub&gt;default&lt;/sub&gt;&lt;/font&gt;" style="text;html=1;align=center;verticalAlign=middle;whiteSpace=wrap;rounded=0;fontSize=11;" vertex="1" parent="1">
          <mxGeometry x="116" y="93" width="60" height="30" as="geometry" />
        </mxCell>
      </root>
    </mxGraphModel>
  </diagram>
</mxfile>
